<mxfile host="app.diagrams.net" modified="2023-07-07T03:25:45.612Z" agent="Mozilla/5.0 (Macintosh; Intel Mac OS X 10_15_7) AppleWebKit/537.36 (KHTML, like Gecko) Chrome/114.0.0.0 Safari/537.36" etag="gSSJ9mweJocexDTCYi9T" version="21.6.1" type="github">
  <diagram id="C5RBs43oDa-KdzZeNtuy" name="Page-1">
    <mxGraphModel dx="1741" dy="915" grid="1" gridSize="10" guides="1" tooltips="1" connect="1" arrows="1" fold="1" page="1" pageScale="1" pageWidth="827" pageHeight="1169" math="0" shadow="0">
      <root>
        <mxCell id="WIyWlLk6GJQsqaUBKTNV-0" />
        <mxCell id="WIyWlLk6GJQsqaUBKTNV-1" parent="WIyWlLk6GJQsqaUBKTNV-0" />
        <mxCell id="WIyWlLk6GJQsqaUBKTNV-2" value="" style="rounded=0;html=1;jettySize=auto;orthogonalLoop=1;fontSize=11;endArrow=block;endFill=0;endSize=8;strokeWidth=1;shadow=0;labelBackgroundColor=none;edgeStyle=orthogonalEdgeStyle;" parent="WIyWlLk6GJQsqaUBKTNV-1" source="WIyWlLk6GJQsqaUBKTNV-3" target="WIyWlLk6GJQsqaUBKTNV-6" edge="1">
          <mxGeometry relative="1" as="geometry" />
        </mxCell>
        <mxCell id="WIyWlLk6GJQsqaUBKTNV-3" value="控制台/运营后台操作折扣" style="rounded=1;whiteSpace=wrap;html=1;fontSize=12;glass=0;strokeWidth=1;shadow=0;" parent="WIyWlLk6GJQsqaUBKTNV-1" vertex="1">
          <mxGeometry x="120" y="70" width="140" height="50" as="geometry" />
        </mxCell>
        <mxCell id="WIyWlLk6GJQsqaUBKTNV-4" value="成功" style="rounded=0;html=1;jettySize=auto;orthogonalLoop=1;fontSize=11;endArrow=block;endFill=0;endSize=8;strokeWidth=1;shadow=0;labelBackgroundColor=none;edgeStyle=orthogonalEdgeStyle;" parent="WIyWlLk6GJQsqaUBKTNV-1" source="WIyWlLk6GJQsqaUBKTNV-6" target="WIyWlLk6GJQsqaUBKTNV-10" edge="1">
          <mxGeometry y="20" relative="1" as="geometry">
            <mxPoint as="offset" />
          </mxGeometry>
        </mxCell>
        <mxCell id="WIyWlLk6GJQsqaUBKTNV-5" value="成功" style="edgeStyle=orthogonalEdgeStyle;rounded=0;html=1;jettySize=auto;orthogonalLoop=1;fontSize=11;endArrow=block;endFill=0;endSize=8;strokeWidth=1;shadow=0;labelBackgroundColor=none;entryX=0;entryY=0.5;entryDx=0;entryDy=0;" parent="WIyWlLk6GJQsqaUBKTNV-1" source="WIyWlLk6GJQsqaUBKTNV-6" target="CUdt5sBR6KowRDDjNwbb-2" edge="1">
          <mxGeometry y="10" relative="1" as="geometry">
            <mxPoint as="offset" />
            <mxPoint x="320" y="210" as="targetPoint" />
          </mxGeometry>
        </mxCell>
        <mxCell id="WIyWlLk6GJQsqaUBKTNV-6" value="选择用户（指定pin/指定用户分组）" style="rhombus;whiteSpace=wrap;html=1;shadow=0;fontFamily=Helvetica;fontSize=12;align=center;strokeWidth=1;spacing=6;spacingTop=-4;" parent="WIyWlLk6GJQsqaUBKTNV-1" vertex="1">
          <mxGeometry x="110" y="170" width="160" height="90" as="geometry" />
        </mxCell>
        <mxCell id="WIyWlLk6GJQsqaUBKTNV-8" value="成功" style="rounded=0;html=1;jettySize=auto;orthogonalLoop=1;fontSize=11;endArrow=block;endFill=0;endSize=8;strokeWidth=1;shadow=0;labelBackgroundColor=none;edgeStyle=orthogonalEdgeStyle;entryX=0.5;entryY=0;entryDx=0;entryDy=0;" parent="WIyWlLk6GJQsqaUBKTNV-1" source="WIyWlLk6GJQsqaUBKTNV-10" target="CUdt5sBR6KowRDDjNwbb-0" edge="1">
          <mxGeometry x="0.32" y="20" relative="1" as="geometry">
            <mxPoint as="offset" />
            <mxPoint x="220" y="430" as="targetPoint" />
          </mxGeometry>
        </mxCell>
        <mxCell id="WIyWlLk6GJQsqaUBKTNV-10" value="删除该用户下的一级缓存/二级缓存" style="rhombus;whiteSpace=wrap;html=1;shadow=0;fontFamily=Helvetica;fontSize=12;align=center;strokeWidth=1;spacing=6;spacingTop=-4;" parent="WIyWlLk6GJQsqaUBKTNV-1" vertex="1">
          <mxGeometry x="110" y="300" width="160" height="80" as="geometry" />
        </mxCell>
        <mxCell id="CUdt5sBR6KowRDDjNwbb-0" value="更新数据库" style="rhombus;whiteSpace=wrap;html=1;shadow=0;fontFamily=Helvetica;fontSize=12;align=center;strokeWidth=1;spacing=6;spacingTop=-4;" vertex="1" parent="WIyWlLk6GJQsqaUBKTNV-1">
          <mxGeometry x="110" y="430" width="160" height="90" as="geometry" />
        </mxCell>
        <mxCell id="CUdt5sBR6KowRDDjNwbb-2" value="删除所有用户的一级/二级缓存" style="rhombus;whiteSpace=wrap;html=1;" vertex="1" parent="WIyWlLk6GJQsqaUBKTNV-1">
          <mxGeometry x="350" y="172.5" width="170" height="85" as="geometry" />
        </mxCell>
        <mxCell id="CUdt5sBR6KowRDDjNwbb-3" value="结束" style="rounded=1;whiteSpace=wrap;html=1;" vertex="1" parent="WIyWlLk6GJQsqaUBKTNV-1">
          <mxGeometry x="490" y="670" width="130" height="60" as="geometry" />
        </mxCell>
        <mxCell id="CUdt5sBR6KowRDDjNwbb-4" value="" style="endArrow=classic;html=1;rounded=0;exitX=0.5;exitY=1;exitDx=0;exitDy=0;entryX=1;entryY=0.5;entryDx=0;entryDy=0;" edge="1" parent="WIyWlLk6GJQsqaUBKTNV-1" source="CUdt5sBR6KowRDDjNwbb-2" target="CUdt5sBR6KowRDDjNwbb-0">
          <mxGeometry width="50" height="50" relative="1" as="geometry">
            <mxPoint x="550" y="440" as="sourcePoint" />
            <mxPoint x="360" y="570" as="targetPoint" />
            <Array as="points">
              <mxPoint x="435" y="475" />
            </Array>
          </mxGeometry>
        </mxCell>
        <mxCell id="CUdt5sBR6KowRDDjNwbb-12" value="成功" style="edgeLabel;html=1;align=center;verticalAlign=middle;resizable=0;points=[];" vertex="1" connectable="0" parent="CUdt5sBR6KowRDDjNwbb-4">
          <mxGeometry x="-0.7124" y="2" relative="1" as="geometry">
            <mxPoint as="offset" />
          </mxGeometry>
        </mxCell>
        <mxCell id="CUdt5sBR6KowRDDjNwbb-5" value="" style="endArrow=classic;html=1;rounded=0;exitX=0.5;exitY=1;exitDx=0;exitDy=0;entryX=0;entryY=0.5;entryDx=0;entryDy=0;" edge="1" parent="WIyWlLk6GJQsqaUBKTNV-1" source="CUdt5sBR6KowRDDjNwbb-0" target="CUdt5sBR6KowRDDjNwbb-3">
          <mxGeometry width="50" height="50" relative="1" as="geometry">
            <mxPoint x="200" y="650" as="sourcePoint" />
            <mxPoint x="250" y="600" as="targetPoint" />
            <Array as="points">
              <mxPoint x="190" y="700" />
            </Array>
          </mxGeometry>
        </mxCell>
        <mxCell id="CUdt5sBR6KowRDDjNwbb-13" value="" style="endArrow=classic;html=1;rounded=0;exitX=1;exitY=0.5;exitDx=0;exitDy=0;entryX=0.5;entryY=0;entryDx=0;entryDy=0;fillColor=#e51400;strokeColor=#B20000;" edge="1" parent="WIyWlLk6GJQsqaUBKTNV-1" source="CUdt5sBR6KowRDDjNwbb-2" target="CUdt5sBR6KowRDDjNwbb-3">
          <mxGeometry width="50" height="50" relative="1" as="geometry">
            <mxPoint x="540" y="540" as="sourcePoint" />
            <mxPoint x="590" y="490" as="targetPoint" />
            <Array as="points">
              <mxPoint x="555" y="215" />
            </Array>
          </mxGeometry>
        </mxCell>
        <mxCell id="CUdt5sBR6KowRDDjNwbb-16" value="失败" style="edgeLabel;html=1;align=center;verticalAlign=middle;resizable=0;points=[];" vertex="1" connectable="0" parent="CUdt5sBR6KowRDDjNwbb-13">
          <mxGeometry x="-0.7694" y="-1" relative="1" as="geometry">
            <mxPoint y="1" as="offset" />
          </mxGeometry>
        </mxCell>
        <mxCell id="CUdt5sBR6KowRDDjNwbb-14" value="" style="endArrow=classic;html=1;rounded=0;exitX=1;exitY=0.5;exitDx=0;exitDy=0;entryX=0.5;entryY=0;entryDx=0;entryDy=0;fillColor=#e51400;strokeColor=#B20000;" edge="1" parent="WIyWlLk6GJQsqaUBKTNV-1" source="WIyWlLk6GJQsqaUBKTNV-10" target="CUdt5sBR6KowRDDjNwbb-3">
          <mxGeometry width="50" height="50" relative="1" as="geometry">
            <mxPoint x="490" y="600" as="sourcePoint" />
            <mxPoint x="540" y="550" as="targetPoint" />
            <Array as="points">
              <mxPoint x="555" y="340" />
            </Array>
          </mxGeometry>
        </mxCell>
        <mxCell id="CUdt5sBR6KowRDDjNwbb-15" value="失败" style="edgeLabel;html=1;align=center;verticalAlign=middle;resizable=0;points=[];" vertex="1" connectable="0" parent="CUdt5sBR6KowRDDjNwbb-14">
          <mxGeometry x="-0.2748" y="-1" relative="1" as="geometry">
            <mxPoint y="1" as="offset" />
          </mxGeometry>
        </mxCell>
        <mxCell id="CUdt5sBR6KowRDDjNwbb-17" value="对于控制台和运营后台来说 操作缓存存在3种情况&lt;br&gt;&amp;nbsp; &amp;nbsp; &amp;nbsp; &amp;nbsp; &amp;nbsp; &amp;nbsp; &amp;nbsp; &amp;nbsp; &amp;nbsp; &amp;nbsp; &amp;nbsp; &amp;nbsp; &amp;nbsp;1、删除用户的缓存 （找到）&lt;br&gt;&amp;nbsp; &amp;nbsp;2、用户组折扣&lt;br&gt;3、全部折扣" style="text;html=1;align=center;verticalAlign=middle;resizable=0;points=[];autosize=1;strokeColor=none;fillColor=none;" vertex="1" parent="WIyWlLk6GJQsqaUBKTNV-1">
          <mxGeometry x="460" y="58" width="280" height="70" as="geometry" />
        </mxCell>
        <mxCell id="CUdt5sBR6KowRDDjNwbb-18" value="是否指定用户" style="rhombus;whiteSpace=wrap;html=1;" vertex="1" parent="WIyWlLk6GJQsqaUBKTNV-1">
          <mxGeometry x="872.5" y="170" width="155" height="65" as="geometry" />
        </mxCell>
        <mxCell id="CUdt5sBR6KowRDDjNwbb-19" value="控制台/运营后台操作折扣" style="rounded=1;whiteSpace=wrap;html=1;fontSize=12;glass=0;strokeWidth=1;shadow=0;" vertex="1" parent="WIyWlLk6GJQsqaUBKTNV-1">
          <mxGeometry x="880" y="73" width="140" height="50" as="geometry" />
        </mxCell>
        <mxCell id="CUdt5sBR6KowRDDjNwbb-20" value="是否指定用户组" style="rhombus;whiteSpace=wrap;html=1;" vertex="1" parent="WIyWlLk6GJQsqaUBKTNV-1">
          <mxGeometry x="872.5" y="290" width="155" height="65" as="geometry" />
        </mxCell>
        <mxCell id="CUdt5sBR6KowRDDjNwbb-22" value="是否全部用户" style="rhombus;whiteSpace=wrap;html=1;" vertex="1" parent="WIyWlLk6GJQsqaUBKTNV-1">
          <mxGeometry x="872.5" y="420" width="155" height="65" as="geometry" />
        </mxCell>
        <mxCell id="CUdt5sBR6KowRDDjNwbb-23" value="删除完成" style="rounded=1;whiteSpace=wrap;html=1;" vertex="1" parent="WIyWlLk6GJQsqaUBKTNV-1">
          <mxGeometry x="1270" y="585" width="120" height="60" as="geometry" />
        </mxCell>
        <mxCell id="CUdt5sBR6KowRDDjNwbb-24" value="删除一级缓存 pin&lt;br&gt;删除二级缓存条件" style="rounded=1;whiteSpace=wrap;html=1;" vertex="1" parent="WIyWlLk6GJQsqaUBKTNV-1">
          <mxGeometry x="1270" y="422.5" width="120" height="60" as="geometry" />
        </mxCell>
        <mxCell id="CUdt5sBR6KowRDDjNwbb-25" value="" style="endArrow=classic;html=1;rounded=0;exitX=1;exitY=0.5;exitDx=0;exitDy=0;" edge="1" parent="WIyWlLk6GJQsqaUBKTNV-1" source="CUdt5sBR6KowRDDjNwbb-18" target="CUdt5sBR6KowRDDjNwbb-24">
          <mxGeometry width="50" height="50" relative="1" as="geometry">
            <mxPoint x="1030" y="200" as="sourcePoint" />
            <mxPoint x="1220" y="220" as="targetPoint" />
            <Array as="points">
              <mxPoint x="1330" y="203" />
            </Array>
          </mxGeometry>
        </mxCell>
        <mxCell id="CUdt5sBR6KowRDDjNwbb-35" value="是" style="edgeLabel;html=1;align=center;verticalAlign=middle;resizable=0;points=[];" vertex="1" connectable="0" parent="CUdt5sBR6KowRDDjNwbb-25">
          <mxGeometry x="-0.4234" y="3" relative="1" as="geometry">
            <mxPoint as="offset" />
          </mxGeometry>
        </mxCell>
        <mxCell id="CUdt5sBR6KowRDDjNwbb-26" value="通过用户组查出全部pin" style="rounded=1;whiteSpace=wrap;html=1;" vertex="1" parent="WIyWlLk6GJQsqaUBKTNV-1">
          <mxGeometry x="1110" y="297.5" width="120" height="50" as="geometry" />
        </mxCell>
        <mxCell id="CUdt5sBR6KowRDDjNwbb-27" value="" style="endArrow=classic;html=1;rounded=0;exitX=1;exitY=0.5;exitDx=0;exitDy=0;entryX=0;entryY=0.5;entryDx=0;entryDy=0;" edge="1" parent="WIyWlLk6GJQsqaUBKTNV-1" source="CUdt5sBR6KowRDDjNwbb-20" target="CUdt5sBR6KowRDDjNwbb-26">
          <mxGeometry width="50" height="50" relative="1" as="geometry">
            <mxPoint x="1060" y="420" as="sourcePoint" />
            <mxPoint x="1100" y="323" as="targetPoint" />
          </mxGeometry>
        </mxCell>
        <mxCell id="CUdt5sBR6KowRDDjNwbb-29" value="" style="endArrow=classic;html=1;rounded=0;exitX=1;exitY=0.5;exitDx=0;exitDy=0;" edge="1" parent="WIyWlLk6GJQsqaUBKTNV-1" source="CUdt5sBR6KowRDDjNwbb-26">
          <mxGeometry width="50" height="50" relative="1" as="geometry">
            <mxPoint x="1270" y="360" as="sourcePoint" />
            <mxPoint x="1330" y="420" as="targetPoint" />
            <Array as="points">
              <mxPoint x="1330" y="323" />
            </Array>
          </mxGeometry>
        </mxCell>
        <mxCell id="CUdt5sBR6KowRDDjNwbb-30" value="" style="endArrow=classic;html=1;rounded=0;exitX=1;exitY=0.5;exitDx=0;exitDy=0;entryX=0;entryY=0.5;entryDx=0;entryDy=0;" edge="1" parent="WIyWlLk6GJQsqaUBKTNV-1" source="CUdt5sBR6KowRDDjNwbb-22" target="CUdt5sBR6KowRDDjNwbb-24">
          <mxGeometry width="50" height="50" relative="1" as="geometry">
            <mxPoint x="1150" y="500" as="sourcePoint" />
            <mxPoint x="1200" y="450" as="targetPoint" />
          </mxGeometry>
        </mxCell>
        <mxCell id="CUdt5sBR6KowRDDjNwbb-39" value="是" style="edgeLabel;html=1;align=center;verticalAlign=middle;resizable=0;points=[];" vertex="1" connectable="0" parent="CUdt5sBR6KowRDDjNwbb-30">
          <mxGeometry x="0.1423" y="3" relative="1" as="geometry">
            <mxPoint as="offset" />
          </mxGeometry>
        </mxCell>
        <mxCell id="CUdt5sBR6KowRDDjNwbb-31" value="" style="endArrow=classic;html=1;rounded=0;exitX=0.5;exitY=1;exitDx=0;exitDy=0;entryX=0.5;entryY=0;entryDx=0;entryDy=0;" edge="1" parent="WIyWlLk6GJQsqaUBKTNV-1" source="CUdt5sBR6KowRDDjNwbb-19" target="CUdt5sBR6KowRDDjNwbb-18">
          <mxGeometry width="50" height="50" relative="1" as="geometry">
            <mxPoint x="800" y="320" as="sourcePoint" />
            <mxPoint x="850" y="270" as="targetPoint" />
          </mxGeometry>
        </mxCell>
        <mxCell id="CUdt5sBR6KowRDDjNwbb-32" value="" style="endArrow=classic;html=1;rounded=0;exitX=0.5;exitY=1;exitDx=0;exitDy=0;entryX=0.5;entryY=0;entryDx=0;entryDy=0;" edge="1" parent="WIyWlLk6GJQsqaUBKTNV-1" source="CUdt5sBR6KowRDDjNwbb-18" target="CUdt5sBR6KowRDDjNwbb-20">
          <mxGeometry width="50" height="50" relative="1" as="geometry">
            <mxPoint x="1000" y="300" as="sourcePoint" />
            <mxPoint x="1050" y="250" as="targetPoint" />
          </mxGeometry>
        </mxCell>
        <mxCell id="CUdt5sBR6KowRDDjNwbb-36" value="否" style="edgeLabel;html=1;align=center;verticalAlign=middle;resizable=0;points=[];" vertex="1" connectable="0" parent="CUdt5sBR6KowRDDjNwbb-32">
          <mxGeometry x="-0.2909" y="-1" relative="1" as="geometry">
            <mxPoint as="offset" />
          </mxGeometry>
        </mxCell>
        <mxCell id="CUdt5sBR6KowRDDjNwbb-33" value="" style="endArrow=classic;html=1;rounded=0;exitX=0.5;exitY=1;exitDx=0;exitDy=0;entryX=0.5;entryY=0;entryDx=0;entryDy=0;" edge="1" parent="WIyWlLk6GJQsqaUBKTNV-1" source="CUdt5sBR6KowRDDjNwbb-20" target="CUdt5sBR6KowRDDjNwbb-22">
          <mxGeometry width="50" height="50" relative="1" as="geometry">
            <mxPoint x="1000" y="430" as="sourcePoint" />
            <mxPoint x="1050" y="380" as="targetPoint" />
          </mxGeometry>
        </mxCell>
        <mxCell id="CUdt5sBR6KowRDDjNwbb-38" value="否" style="edgeLabel;html=1;align=center;verticalAlign=middle;resizable=0;points=[];" vertex="1" connectable="0" parent="CUdt5sBR6KowRDDjNwbb-33">
          <mxGeometry x="-0.1846" y="-1" relative="1" as="geometry">
            <mxPoint as="offset" />
          </mxGeometry>
        </mxCell>
        <mxCell id="CUdt5sBR6KowRDDjNwbb-34" value="" style="endArrow=classic;html=1;rounded=0;exitX=0.5;exitY=1;exitDx=0;exitDy=0;entryX=0.5;entryY=0;entryDx=0;entryDy=0;" edge="1" parent="WIyWlLk6GJQsqaUBKTNV-1" source="CUdt5sBR6KowRDDjNwbb-24" target="CUdt5sBR6KowRDDjNwbb-23">
          <mxGeometry width="50" height="50" relative="1" as="geometry">
            <mxPoint x="1410" y="550" as="sourcePoint" />
            <mxPoint x="1460" y="500" as="targetPoint" />
          </mxGeometry>
        </mxCell>
        <mxCell id="CUdt5sBR6KowRDDjNwbb-37" value="是" style="text;html=1;align=center;verticalAlign=middle;resizable=0;points=[];autosize=1;strokeColor=none;fillColor=none;" vertex="1" parent="WIyWlLk6GJQsqaUBKTNV-1">
          <mxGeometry x="1040" y="308" width="40" height="30" as="geometry" />
        </mxCell>
        <mxCell id="CUdt5sBR6KowRDDjNwbb-40" value="一级缓存/二级缓存" style="rounded=1;whiteSpace=wrap;html=1;" vertex="1" parent="WIyWlLk6GJQsqaUBKTNV-1">
          <mxGeometry x="2020" y="32" width="120" height="60" as="geometry" />
        </mxCell>
        <mxCell id="CUdt5sBR6KowRDDjNwbb-41" value="数据库" style="rounded=1;whiteSpace=wrap;html=1;" vertex="1" parent="WIyWlLk6GJQsqaUBKTNV-1">
          <mxGeometry x="2210" y="32" width="120" height="60" as="geometry" />
        </mxCell>
        <mxCell id="CUdt5sBR6KowRDDjNwbb-42" value="t1" style="text;html=1;align=center;verticalAlign=middle;resizable=0;points=[];autosize=1;strokeColor=none;fillColor=none;" vertex="1" parent="WIyWlLk6GJQsqaUBKTNV-1">
          <mxGeometry x="1580" y="152" width="28" height="26" as="geometry" />
        </mxCell>
        <mxCell id="CUdt5sBR6KowRDDjNwbb-43" value="" style="endArrow=none;dashed=1;html=1;dashPattern=1 3;strokeWidth=2;rounded=0;" edge="1" parent="WIyWlLk6GJQsqaUBKTNV-1">
          <mxGeometry width="50" height="50" relative="1" as="geometry">
            <mxPoint x="2079.33" y="753" as="sourcePoint" />
            <mxPoint x="2079.33" y="92" as="targetPoint" />
          </mxGeometry>
        </mxCell>
        <mxCell id="CUdt5sBR6KowRDDjNwbb-47" value="删除缓存" style="edgeLabel;html=1;align=center;verticalAlign=middle;resizable=0;points=[];" vertex="1" connectable="0" parent="CUdt5sBR6KowRDDjNwbb-43">
          <mxGeometry x="0.7912" y="4" relative="1" as="geometry">
            <mxPoint as="offset" />
          </mxGeometry>
        </mxCell>
        <mxCell id="CUdt5sBR6KowRDDjNwbb-56" value="缓存不存在" style="edgeLabel;html=1;align=center;verticalAlign=middle;resizable=0;points=[];" vertex="1" connectable="0" parent="CUdt5sBR6KowRDDjNwbb-43">
          <mxGeometry x="0.6884" relative="1" as="geometry">
            <mxPoint y="1" as="offset" />
          </mxGeometry>
        </mxCell>
        <mxCell id="CUdt5sBR6KowRDDjNwbb-61" value="删缓存" style="edgeLabel;html=1;align=center;verticalAlign=middle;resizable=0;points=[];" vertex="1" connectable="0" parent="CUdt5sBR6KowRDDjNwbb-43">
          <mxGeometry x="0.5108" relative="1" as="geometry">
            <mxPoint y="-1" as="offset" />
          </mxGeometry>
        </mxCell>
        <mxCell id="CUdt5sBR6KowRDDjNwbb-66" value="缓存不存在" style="edgeLabel;html=1;align=center;verticalAlign=middle;resizable=0;points=[];" vertex="1" connectable="0" parent="CUdt5sBR6KowRDDjNwbb-43">
          <mxGeometry x="0.3212" y="-1" relative="1" as="geometry">
            <mxPoint y="-1" as="offset" />
          </mxGeometry>
        </mxCell>
        <mxCell id="CUdt5sBR6KowRDDjNwbb-80" value="存在" style="edgeLabel;html=1;align=center;verticalAlign=middle;resizable=0;points=[];" vertex="1" connectable="0" parent="CUdt5sBR6KowRDDjNwbb-43">
          <mxGeometry x="0.2123" relative="1" as="geometry">
            <mxPoint y="-1" as="offset" />
          </mxGeometry>
        </mxCell>
        <mxCell id="CUdt5sBR6KowRDDjNwbb-86" value="Text" style="edgeLabel;html=1;align=center;verticalAlign=middle;resizable=0;points=[];" vertex="1" connectable="0" parent="CUdt5sBR6KowRDDjNwbb-43">
          <mxGeometry x="0.0469" y="-1" relative="1" as="geometry">
            <mxPoint y="1" as="offset" />
          </mxGeometry>
        </mxCell>
        <mxCell id="CUdt5sBR6KowRDDjNwbb-93" value="删除用户组下pin的缓存" style="edgeLabel;html=1;align=center;verticalAlign=middle;resizable=0;points=[];" vertex="1" connectable="0" parent="CUdt5sBR6KowRDDjNwbb-43">
          <mxGeometry x="-0.0499" y="-4" relative="1" as="geometry">
            <mxPoint y="1" as="offset" />
          </mxGeometry>
        </mxCell>
        <mxCell id="CUdt5sBR6KowRDDjNwbb-100" value="存在" style="edgeLabel;html=1;align=center;verticalAlign=middle;resizable=0;points=[];" vertex="1" connectable="0" parent="CUdt5sBR6KowRDDjNwbb-43">
          <mxGeometry x="-0.179" y="-2" relative="1" as="geometry">
            <mxPoint y="1" as="offset" />
          </mxGeometry>
        </mxCell>
        <mxCell id="CUdt5sBR6KowRDDjNwbb-105" value="缓存不存在" style="edgeLabel;html=1;align=center;verticalAlign=middle;resizable=0;points=[];" vertex="1" connectable="0" parent="CUdt5sBR6KowRDDjNwbb-43">
          <mxGeometry x="-0.3162" y="3" relative="1" as="geometry">
            <mxPoint y="2" as="offset" />
          </mxGeometry>
        </mxCell>
        <mxCell id="CUdt5sBR6KowRDDjNwbb-44" value="" style="endArrow=none;dashed=1;html=1;dashPattern=1 3;strokeWidth=2;rounded=0;" edge="1" parent="WIyWlLk6GJQsqaUBKTNV-1">
          <mxGeometry width="50" height="50" relative="1" as="geometry">
            <mxPoint x="2269.33" y="753" as="sourcePoint" />
            <mxPoint x="2269.33" y="92" as="targetPoint" />
          </mxGeometry>
        </mxCell>
        <mxCell id="CUdt5sBR6KowRDDjNwbb-48" value="更新数据库" style="edgeLabel;html=1;align=center;verticalAlign=middle;resizable=0;points=[];" vertex="1" connectable="0" parent="CUdt5sBR6KowRDDjNwbb-44">
          <mxGeometry x="0.8033" y="4" relative="1" as="geometry">
            <mxPoint y="3" as="offset" />
          </mxGeometry>
        </mxCell>
        <mxCell id="CUdt5sBR6KowRDDjNwbb-57" value="查库" style="edgeLabel;html=1;align=center;verticalAlign=middle;resizable=0;points=[];" vertex="1" connectable="0" parent="CUdt5sBR6KowRDDjNwbb-44">
          <mxGeometry x="0.6924" y="1" relative="1" as="geometry">
            <mxPoint y="1" as="offset" />
          </mxGeometry>
        </mxCell>
        <mxCell id="CUdt5sBR6KowRDDjNwbb-62" value="更新数据库" style="edgeLabel;html=1;align=center;verticalAlign=middle;resizable=0;points=[];" vertex="1" connectable="0" parent="CUdt5sBR6KowRDDjNwbb-44">
          <mxGeometry x="0.5149" y="1" relative="1" as="geometry">
            <mxPoint y="1" as="offset" />
          </mxGeometry>
        </mxCell>
        <mxCell id="CUdt5sBR6KowRDDjNwbb-67" value="查库" style="edgeLabel;html=1;align=center;verticalAlign=middle;resizable=0;points=[];" vertex="1" connectable="0" parent="CUdt5sBR6KowRDDjNwbb-44">
          <mxGeometry x="0.3091" y="2" relative="1" as="geometry">
            <mxPoint y="-1" as="offset" />
          </mxGeometry>
        </mxCell>
        <mxCell id="CUdt5sBR6KowRDDjNwbb-94" value="更新数据库" style="edgeLabel;html=1;align=center;verticalAlign=middle;resizable=0;points=[];" vertex="1" connectable="0" parent="CUdt5sBR6KowRDDjNwbb-44">
          <mxGeometry x="-0.054" y="1" relative="1" as="geometry">
            <mxPoint y="-1" as="offset" />
          </mxGeometry>
        </mxCell>
        <mxCell id="CUdt5sBR6KowRDDjNwbb-106" value="查库" style="edgeLabel;html=1;align=center;verticalAlign=middle;resizable=0;points=[];" vertex="1" connectable="0" parent="CUdt5sBR6KowRDDjNwbb-44">
          <mxGeometry x="-0.3122" y="2" relative="1" as="geometry">
            <mxPoint y="-1" as="offset" />
          </mxGeometry>
        </mxCell>
        <mxCell id="CUdt5sBR6KowRDDjNwbb-46" value="新增/修改 新增了5折" style="text;html=1;align=center;verticalAlign=middle;resizable=0;points=[];autosize=1;strokeColor=none;fillColor=none;" vertex="1" parent="WIyWlLk6GJQsqaUBKTNV-1">
          <mxGeometry x="1625" y="152" width="130" height="30" as="geometry" />
        </mxCell>
        <mxCell id="CUdt5sBR6KowRDDjNwbb-49" value="t2" style="text;html=1;align=center;verticalAlign=middle;resizable=0;points=[];autosize=1;strokeColor=none;fillColor=none;" vertex="1" parent="WIyWlLk6GJQsqaUBKTNV-1">
          <mxGeometry x="1579" y="188" width="30" height="30" as="geometry" />
        </mxCell>
        <mxCell id="CUdt5sBR6KowRDDjNwbb-50" value="查询最小折扣" style="text;html=1;align=center;verticalAlign=middle;resizable=0;points=[];autosize=1;strokeColor=none;fillColor=none;" vertex="1" parent="WIyWlLk6GJQsqaUBKTNV-1">
          <mxGeometry x="1625" y="188" width="100" height="30" as="geometry" />
        </mxCell>
        <mxCell id="CUdt5sBR6KowRDDjNwbb-51" value="查折扣" style="rounded=1;whiteSpace=wrap;html=1;" vertex="1" parent="WIyWlLk6GJQsqaUBKTNV-1">
          <mxGeometry x="1860" y="32" width="120" height="60" as="geometry" />
        </mxCell>
        <mxCell id="CUdt5sBR6KowRDDjNwbb-52" value="" style="endArrow=none;dashed=1;html=1;dashPattern=1 3;strokeWidth=2;rounded=0;entryX=0.5;entryY=1;entryDx=0;entryDy=0;" edge="1" parent="WIyWlLk6GJQsqaUBKTNV-1" target="CUdt5sBR6KowRDDjNwbb-51">
          <mxGeometry width="50" height="50" relative="1" as="geometry">
            <mxPoint x="1920" y="760" as="sourcePoint" />
            <mxPoint x="1950" y="460" as="targetPoint" />
          </mxGeometry>
        </mxCell>
        <mxCell id="CUdt5sBR6KowRDDjNwbb-55" value="先查一口价/不存在再查最小折扣" style="edgeLabel;html=1;align=center;verticalAlign=middle;resizable=0;points=[];" vertex="1" connectable="0" parent="CUdt5sBR6KowRDDjNwbb-52">
          <mxGeometry x="0.6916" y="2" relative="1" as="geometry">
            <mxPoint as="offset" />
          </mxGeometry>
        </mxCell>
        <mxCell id="CUdt5sBR6KowRDDjNwbb-65" value="先查一口价/不存在再查最小折扣" style="edgeLabel;html=1;align=center;verticalAlign=middle;resizable=0;points=[];" vertex="1" connectable="0" parent="CUdt5sBR6KowRDDjNwbb-52">
          <mxGeometry x="0.3124" y="1" relative="1" as="geometry">
            <mxPoint as="offset" />
          </mxGeometry>
        </mxCell>
        <mxCell id="CUdt5sBR6KowRDDjNwbb-99" value="先查一口价/不存在再查最小折扣" style="edgeLabel;html=1;align=center;verticalAlign=middle;resizable=0;points=[];" vertex="1" connectable="0" parent="CUdt5sBR6KowRDDjNwbb-52">
          <mxGeometry x="-0.1507" y="1" relative="1" as="geometry">
            <mxPoint as="offset" />
          </mxGeometry>
        </mxCell>
        <mxCell id="CUdt5sBR6KowRDDjNwbb-104" value="先查一口价/不存在再查最小折扣" style="edgeLabel;html=1;align=center;verticalAlign=middle;resizable=0;points=[];" vertex="1" connectable="0" parent="CUdt5sBR6KowRDDjNwbb-52">
          <mxGeometry x="-0.3224" y="4" relative="1" as="geometry">
            <mxPoint as="offset" />
          </mxGeometry>
        </mxCell>
        <mxCell id="CUdt5sBR6KowRDDjNwbb-59" value="t3" style="text;html=1;align=center;verticalAlign=middle;resizable=0;points=[];autosize=1;strokeColor=none;fillColor=none;" vertex="1" parent="WIyWlLk6GJQsqaUBKTNV-1">
          <mxGeometry x="1578" y="235" width="30" height="30" as="geometry" />
        </mxCell>
        <mxCell id="CUdt5sBR6KowRDDjNwbb-60" value="新增一客一价 指定规则6折" style="text;html=1;align=center;verticalAlign=middle;resizable=0;points=[];autosize=1;strokeColor=none;fillColor=none;" vertex="1" parent="WIyWlLk6GJQsqaUBKTNV-1">
          <mxGeometry x="1595" y="238" width="170" height="30" as="geometry" />
        </mxCell>
        <mxCell id="CUdt5sBR6KowRDDjNwbb-63" value="t4" style="text;html=1;align=center;verticalAlign=middle;resizable=0;points=[];autosize=1;strokeColor=none;fillColor=none;" vertex="1" parent="WIyWlLk6GJQsqaUBKTNV-1">
          <mxGeometry x="1585" y="308" width="30" height="30" as="geometry" />
        </mxCell>
        <mxCell id="CUdt5sBR6KowRDDjNwbb-64" value="查最小折扣" style="text;html=1;align=center;verticalAlign=middle;resizable=0;points=[];autosize=1;strokeColor=none;fillColor=none;" vertex="1" parent="WIyWlLk6GJQsqaUBKTNV-1">
          <mxGeometry x="1610" y="308" width="80" height="30" as="geometry" />
        </mxCell>
        <mxCell id="CUdt5sBR6KowRDDjNwbb-69" value="查出5折" style="text;html=1;align=center;verticalAlign=middle;resizable=0;points=[];autosize=1;strokeColor=none;fillColor=none;" vertex="1" parent="WIyWlLk6GJQsqaUBKTNV-1">
          <mxGeometry x="2370" y="178" width="70" height="30" as="geometry" />
        </mxCell>
        <mxCell id="CUdt5sBR6KowRDDjNwbb-70" value="缓存不存在" style="text;html=1;align=center;verticalAlign=middle;resizable=0;points=[];autosize=1;strokeColor=none;fillColor=none;" vertex="1" parent="WIyWlLk6GJQsqaUBKTNV-1">
          <mxGeometry x="2360" y="142.5" width="80" height="30" as="geometry" />
        </mxCell>
        <mxCell id="CUdt5sBR6KowRDDjNwbb-71" value="缓存不存在" style="text;html=1;align=center;verticalAlign=middle;resizable=0;points=[];autosize=1;strokeColor=none;fillColor=none;" vertex="1" parent="WIyWlLk6GJQsqaUBKTNV-1">
          <mxGeometry x="2370" y="238" width="80" height="30" as="geometry" />
        </mxCell>
        <mxCell id="CUdt5sBR6KowRDDjNwbb-73" value="&amp;nbsp; &amp;nbsp; 查出5折" style="text;html=1;align=center;verticalAlign=middle;resizable=0;points=[];autosize=1;strokeColor=none;fillColor=none;" vertex="1" parent="WIyWlLk6GJQsqaUBKTNV-1">
          <mxGeometry x="2360" y="297.5" width="80" height="30" as="geometry" />
        </mxCell>
        <mxCell id="CUdt5sBR6KowRDDjNwbb-76" value="非一客一价" style="text;html=1;align=center;verticalAlign=middle;resizable=0;points=[];autosize=1;strokeColor=none;fillColor=none;" vertex="1" parent="WIyWlLk6GJQsqaUBKTNV-1">
          <mxGeometry x="1675" y="307.5" width="80" height="30" as="geometry" />
        </mxCell>
        <mxCell id="CUdt5sBR6KowRDDjNwbb-77" value="t5" style="text;html=1;align=center;verticalAlign=middle;resizable=0;points=[];autosize=1;strokeColor=none;fillColor=none;" vertex="1" parent="WIyWlLk6GJQsqaUBKTNV-1">
          <mxGeometry x="1585" y="348" width="30" height="30" as="geometry" />
        </mxCell>
        <mxCell id="CUdt5sBR6KowRDDjNwbb-78" value="&lt;span style=&quot;color: rgb(0, 0, 0); font-family: Helvetica; font-size: 12px; font-style: normal; font-variant-ligatures: normal; font-variant-caps: normal; font-weight: 400; letter-spacing: normal; orphans: 2; text-align: center; text-indent: 0px; text-transform: none; widows: 2; word-spacing: 0px; -webkit-text-stroke-width: 0px; background-color: rgb(251, 251, 251); text-decoration-thickness: initial; text-decoration-style: initial; text-decoration-color: initial; float: none; display: inline !important;&quot;&gt;查最小折扣 非一客一价&lt;/span&gt;" style="text;whiteSpace=wrap;html=1;" vertex="1" parent="WIyWlLk6GJQsqaUBKTNV-1">
          <mxGeometry x="1615" y="347.5" width="135" height="22.5" as="geometry" />
        </mxCell>
        <mxCell id="CUdt5sBR6KowRDDjNwbb-79" value="先查一口价/不存在再查最小折扣" style="text;html=1;align=center;verticalAlign=middle;resizable=0;points=[];autosize=1;strokeColor=none;fillColor=none;" vertex="1" parent="WIyWlLk6GJQsqaUBKTNV-1">
          <mxGeometry x="1815" y="338" width="190" height="30" as="geometry" />
        </mxCell>
        <mxCell id="CUdt5sBR6KowRDDjNwbb-81" value="查出5折" style="text;html=1;align=center;verticalAlign=middle;resizable=0;points=[];autosize=1;strokeColor=none;fillColor=none;" vertex="1" parent="WIyWlLk6GJQsqaUBKTNV-1">
          <mxGeometry x="2375" y="337.5" width="70" height="30" as="geometry" />
        </mxCell>
        <mxCell id="CUdt5sBR6KowRDDjNwbb-82" value="t6" style="text;html=1;align=center;verticalAlign=middle;resizable=0;points=[];autosize=1;strokeColor=none;fillColor=none;" vertex="1" parent="WIyWlLk6GJQsqaUBKTNV-1">
          <mxGeometry x="1585" y="388" width="30" height="30" as="geometry" />
        </mxCell>
        <mxCell id="CUdt5sBR6KowRDDjNwbb-83" value="查最小折扣 一客一价" style="text;html=1;align=center;verticalAlign=middle;resizable=0;points=[];autosize=1;strokeColor=none;fillColor=none;" vertex="1" parent="WIyWlLk6GJQsqaUBKTNV-1">
          <mxGeometry x="1615" y="388" width="130" height="30" as="geometry" />
        </mxCell>
        <mxCell id="CUdt5sBR6KowRDDjNwbb-85" value="先查一口价/不存在再查最小折扣" style="text;html=1;align=center;verticalAlign=middle;resizable=0;points=[];autosize=1;strokeColor=none;fillColor=none;" vertex="1" parent="WIyWlLk6GJQsqaUBKTNV-1">
          <mxGeometry x="1825" y="388" width="190" height="30" as="geometry" />
        </mxCell>
        <mxCell id="CUdt5sBR6KowRDDjNwbb-87" value="缓存不存在" style="edgeLabel;html=1;align=center;verticalAlign=middle;resizable=0;points=[];" vertex="1" connectable="0" parent="WIyWlLk6GJQsqaUBKTNV-1">
          <mxGeometry x="2080" y="403" as="geometry" />
        </mxCell>
        <mxCell id="CUdt5sBR6KowRDDjNwbb-88" value="查库" style="edgeLabel;html=1;align=center;verticalAlign=middle;resizable=0;points=[];" vertex="1" connectable="0" parent="WIyWlLk6GJQsqaUBKTNV-1">
          <mxGeometry x="2277.33" y="312.5" as="geometry">
            <mxPoint x="-7" y="90" as="offset" />
          </mxGeometry>
        </mxCell>
        <mxCell id="CUdt5sBR6KowRDDjNwbb-89" value="&lt;span style=&quot;color: rgb(0, 0, 0); font-family: Helvetica; font-size: 12px; font-style: normal; font-variant-ligatures: normal; font-variant-caps: normal; font-weight: 400; letter-spacing: normal; orphans: 2; text-align: center; text-indent: 0px; text-transform: none; widows: 2; word-spacing: 0px; -webkit-text-stroke-width: 0px; background-color: rgb(251, 251, 251); text-decoration-thickness: initial; text-decoration-style: initial; text-decoration-color: initial; float: none; display: inline !important;&quot;&gt;查出6折&lt;/span&gt;" style="text;whiteSpace=wrap;html=1;" vertex="1" parent="WIyWlLk6GJQsqaUBKTNV-1">
          <mxGeometry x="2380" y="390" width="80" height="40" as="geometry" />
        </mxCell>
        <mxCell id="CUdt5sBR6KowRDDjNwbb-91" value="T7 新增指定用户分组4折" style="text;html=1;align=center;verticalAlign=middle;resizable=0;points=[];autosize=1;strokeColor=none;fillColor=none;" vertex="1" parent="WIyWlLk6GJQsqaUBKTNV-1">
          <mxGeometry x="1585" y="430" width="160" height="30" as="geometry" />
        </mxCell>
        <mxCell id="CUdt5sBR6KowRDDjNwbb-95" value="最小折扣缓存不存在&lt;br&gt;一客一价 6折在" style="text;html=1;align=center;verticalAlign=middle;resizable=0;points=[];autosize=1;strokeColor=none;fillColor=none;" vertex="1" parent="WIyWlLk6GJQsqaUBKTNV-1">
          <mxGeometry x="2335" y="425" width="130" height="40" as="geometry" />
        </mxCell>
        <mxCell id="CUdt5sBR6KowRDDjNwbb-97" value="T8 查最小折扣 一客一价" style="text;html=1;align=center;verticalAlign=middle;resizable=0;points=[];autosize=1;strokeColor=none;fillColor=none;" vertex="1" parent="WIyWlLk6GJQsqaUBKTNV-1">
          <mxGeometry x="1575" y="468" width="150" height="30" as="geometry" />
        </mxCell>
        <mxCell id="CUdt5sBR6KowRDDjNwbb-101" value="查出6折" style="text;html=1;align=center;verticalAlign=middle;resizable=0;points=[];autosize=1;strokeColor=none;fillColor=none;" vertex="1" parent="WIyWlLk6GJQsqaUBKTNV-1">
          <mxGeometry x="2365" y="468" width="70" height="30" as="geometry" />
        </mxCell>
        <mxCell id="CUdt5sBR6KowRDDjNwbb-102" value="&lt;span style=&quot;color: rgb(0, 0, 0); font-family: Helvetica; font-size: 12px; font-style: normal; font-variant-ligatures: normal; font-variant-caps: normal; font-weight: 400; letter-spacing: normal; orphans: 2; text-align: center; text-indent: 0px; text-transform: none; widows: 2; word-spacing: 0px; -webkit-text-stroke-width: 0px; background-color: rgb(251, 251, 251); text-decoration-thickness: initial; text-decoration-style: initial; text-decoration-color: initial; float: none; display: inline !important;&quot;&gt;T9 查最小折扣 非一客一价&lt;/span&gt;" style="text;whiteSpace=wrap;html=1;" vertex="1" parent="WIyWlLk6GJQsqaUBKTNV-1">
          <mxGeometry x="1585" y="520" width="160" height="40" as="geometry" />
        </mxCell>
        <mxCell id="CUdt5sBR6KowRDDjNwbb-107" value="查出4折" style="text;html=1;align=center;verticalAlign=middle;resizable=0;points=[];autosize=1;strokeColor=none;fillColor=none;" vertex="1" parent="WIyWlLk6GJQsqaUBKTNV-1">
          <mxGeometry x="2365" y="508" width="70" height="30" as="geometry" />
        </mxCell>
        <mxCell id="CUdt5sBR6KowRDDjNwbb-108" value="" style="shape=table;startSize=0;container=1;collapsible=0;childLayout=tableLayout;fontSize=16;" vertex="1" parent="WIyWlLk6GJQsqaUBKTNV-1">
          <mxGeometry x="1770" y="690" width="180" height="120" as="geometry" />
        </mxCell>
        <mxCell id="CUdt5sBR6KowRDDjNwbb-109" value="" style="shape=tableRow;horizontal=0;startSize=0;swimlaneHead=0;swimlaneBody=0;strokeColor=inherit;top=0;left=0;bottom=0;right=0;collapsible=0;dropTarget=0;fillColor=none;points=[[0,0.5],[1,0.5]];portConstraint=eastwest;fontSize=16;" vertex="1" parent="CUdt5sBR6KowRDDjNwbb-108">
          <mxGeometry width="180" height="40" as="geometry" />
        </mxCell>
        <mxCell id="CUdt5sBR6KowRDDjNwbb-110" value="" style="shape=partialRectangle;html=1;whiteSpace=wrap;connectable=0;strokeColor=inherit;overflow=hidden;fillColor=none;top=0;left=0;bottom=0;right=0;pointerEvents=1;fontSize=16;" vertex="1" parent="CUdt5sBR6KowRDDjNwbb-109">
          <mxGeometry width="60" height="40" as="geometry">
            <mxRectangle width="60" height="40" as="alternateBounds" />
          </mxGeometry>
        </mxCell>
        <mxCell id="CUdt5sBR6KowRDDjNwbb-111" value="" style="shape=partialRectangle;html=1;whiteSpace=wrap;connectable=0;strokeColor=inherit;overflow=hidden;fillColor=none;top=0;left=0;bottom=0;right=0;pointerEvents=1;fontSize=16;" vertex="1" parent="CUdt5sBR6KowRDDjNwbb-109">
          <mxGeometry x="60" width="60" height="40" as="geometry">
            <mxRectangle width="60" height="40" as="alternateBounds" />
          </mxGeometry>
        </mxCell>
        <mxCell id="CUdt5sBR6KowRDDjNwbb-112" value="" style="shape=partialRectangle;html=1;whiteSpace=wrap;connectable=0;strokeColor=inherit;overflow=hidden;fillColor=none;top=0;left=0;bottom=0;right=0;pointerEvents=1;fontSize=16;" vertex="1" parent="CUdt5sBR6KowRDDjNwbb-109">
          <mxGeometry x="120" width="60" height="40" as="geometry">
            <mxRectangle width="60" height="40" as="alternateBounds" />
          </mxGeometry>
        </mxCell>
        <mxCell id="CUdt5sBR6KowRDDjNwbb-113" value="" style="shape=tableRow;horizontal=0;startSize=0;swimlaneHead=0;swimlaneBody=0;strokeColor=inherit;top=0;left=0;bottom=0;right=0;collapsible=0;dropTarget=0;fillColor=none;points=[[0,0.5],[1,0.5]];portConstraint=eastwest;fontSize=16;" vertex="1" parent="CUdt5sBR6KowRDDjNwbb-108">
          <mxGeometry y="40" width="180" height="40" as="geometry" />
        </mxCell>
        <mxCell id="CUdt5sBR6KowRDDjNwbb-114" value="" style="shape=partialRectangle;html=1;whiteSpace=wrap;connectable=0;strokeColor=inherit;overflow=hidden;fillColor=none;top=0;left=0;bottom=0;right=0;pointerEvents=1;fontSize=16;" vertex="1" parent="CUdt5sBR6KowRDDjNwbb-113">
          <mxGeometry width="60" height="40" as="geometry">
            <mxRectangle width="60" height="40" as="alternateBounds" />
          </mxGeometry>
        </mxCell>
        <mxCell id="CUdt5sBR6KowRDDjNwbb-115" value="" style="shape=partialRectangle;html=1;whiteSpace=wrap;connectable=0;strokeColor=inherit;overflow=hidden;fillColor=none;top=0;left=0;bottom=0;right=0;pointerEvents=1;fontSize=16;" vertex="1" parent="CUdt5sBR6KowRDDjNwbb-113">
          <mxGeometry x="60" width="60" height="40" as="geometry">
            <mxRectangle width="60" height="40" as="alternateBounds" />
          </mxGeometry>
        </mxCell>
        <mxCell id="CUdt5sBR6KowRDDjNwbb-116" value="" style="shape=partialRectangle;html=1;whiteSpace=wrap;connectable=0;strokeColor=inherit;overflow=hidden;fillColor=none;top=0;left=0;bottom=0;right=0;pointerEvents=1;fontSize=16;" vertex="1" parent="CUdt5sBR6KowRDDjNwbb-113">
          <mxGeometry x="120" width="60" height="40" as="geometry">
            <mxRectangle width="60" height="40" as="alternateBounds" />
          </mxGeometry>
        </mxCell>
        <mxCell id="CUdt5sBR6KowRDDjNwbb-117" value="" style="shape=tableRow;horizontal=0;startSize=0;swimlaneHead=0;swimlaneBody=0;strokeColor=inherit;top=0;left=0;bottom=0;right=0;collapsible=0;dropTarget=0;fillColor=none;points=[[0,0.5],[1,0.5]];portConstraint=eastwest;fontSize=16;" vertex="1" parent="CUdt5sBR6KowRDDjNwbb-108">
          <mxGeometry y="80" width="180" height="40" as="geometry" />
        </mxCell>
        <mxCell id="CUdt5sBR6KowRDDjNwbb-118" value="" style="shape=partialRectangle;html=1;whiteSpace=wrap;connectable=0;strokeColor=inherit;overflow=hidden;fillColor=none;top=0;left=0;bottom=0;right=0;pointerEvents=1;fontSize=16;" vertex="1" parent="CUdt5sBR6KowRDDjNwbb-117">
          <mxGeometry width="60" height="40" as="geometry">
            <mxRectangle width="60" height="40" as="alternateBounds" />
          </mxGeometry>
        </mxCell>
        <mxCell id="CUdt5sBR6KowRDDjNwbb-119" value="" style="shape=partialRectangle;html=1;whiteSpace=wrap;connectable=0;strokeColor=inherit;overflow=hidden;fillColor=none;top=0;left=0;bottom=0;right=0;pointerEvents=1;fontSize=16;" vertex="1" parent="CUdt5sBR6KowRDDjNwbb-117">
          <mxGeometry x="60" width="60" height="40" as="geometry">
            <mxRectangle width="60" height="40" as="alternateBounds" />
          </mxGeometry>
        </mxCell>
        <mxCell id="CUdt5sBR6KowRDDjNwbb-120" value="" style="shape=partialRectangle;html=1;whiteSpace=wrap;connectable=0;strokeColor=inherit;overflow=hidden;fillColor=none;top=0;left=0;bottom=0;right=0;pointerEvents=1;fontSize=16;" vertex="1" parent="CUdt5sBR6KowRDDjNwbb-117">
          <mxGeometry x="120" width="60" height="40" as="geometry">
            <mxRectangle width="60" height="40" as="alternateBounds" />
          </mxGeometry>
        </mxCell>
      </root>
    </mxGraphModel>
  </diagram>
</mxfile>
